<svg xmlns="http://www.w3.org/2000/svg" width="926.933" height="1208.979" viewBox="0 0 926.933 1208.979">
  <g id="laser" transform="translate(335.864 866.709) rotate(-36)">
    <g id="Union_2" data-name="Union 2" transform="translate(325.027 558.226) rotate(180)" fill="rgba(54,239,0,0)">
      <path d="M54.8,671H0L21.752,621.55,0,589H36.07L65,523.23V0h9V523.23L102.93,589H139l-21.752,32.55L139,671H84.2L69.5,693Z" stroke="none"/>
      <path d="M 69.49980163574219 687.6007080078125 L 82.59789276123047 668.0004272460938 L 134.402587890625 668.0004272460938 L 113.8388900756836 621.2509765625 L 133.3866729736328 591.9996337890625 L 100.9719848632812 591.9996337890625 L 70.99980163574219 523.8609008789062 L 70.99980163574219 3 L 67.99980163574219 3 L 67.99980163574219 523.8609008789062 L 38.02761840820312 591.9996337890625 L 5.612932682037354 591.9996337890625 L 25.16071128845215 621.2509765625 L 4.597009658813477 668.0004272460938 L 56.40171051025391 668.0004272460938 L 69.49980163574219 687.6007080078125 M 69.49980163574219 693 L 54.79825592041016 671.0004272460938 L -1.654607513046358e-05 671.0004272460938 L 21.75198364257812 621.549560546875 L -1.654607513046358e-05 588.9996337890625 L 36.06980133056641 588.9996337890625 L 64.99980163574219 523.2302856445312 L 64.99980163574219 0 L 73.99980163574219 0 L 73.99980163574219 523.2302856445312 L 102.929801940918 588.9996337890625 L 138.9996185302734 588.9996337890625 L 117.2476196289062 621.549560546875 L 138.9996185302734 671.0004272460938 L 84.20134735107422 671.0004272460938 L 69.49980163574219 693 Z" stroke="none" fill="rgba(0,255,68,0)"/>
    </g>
    <g id="Union_1" data-name="Union 1" transform="translate(189.696 -832.5)" fill="rgba(54,239,0,0.56)">
      <path d="M 69.49980163574219 690.3002319335938 L 56.04543685913086 670.1669921875 L 55.59998321533203 669.5004272460938 L 54.79825592041016 669.5004272460938 L 2.298471212387085 669.5004272460938 L 23.1249828338623 622.153564453125 L 23.45634651184082 621.4002685546875 L 22.99916458129883 620.716064453125 L 2.806533813476562 590.4996337890625 L 36.06980133056641 590.4996337890625 L 37.04870986938477 590.4996337890625 L 37.44280242919922 589.6036376953125 L 66.372802734375 523.8342895507812 L 66.49980163574219 523.545654296875 L 66.49980163574219 523.2302856445312 L 66.49980163574219 1.5 L 72.49980163574219 1.5 L 72.49980163574219 523.2302856445312 L 72.49980163574219 523.545654296875 L 72.62680053710938 523.8342895507812 L 101.5568008422852 589.6036376953125 L 101.9508895874023 590.4996337890625 L 102.929801940918 590.4996337890625 L 136.1930694580078 590.4996337890625 L 116.0004348754883 620.716064453125 L 115.5432586669922 621.4002685546875 L 115.8746185302734 622.153564453125 L 136.7011260986328 669.5004272460938 L 84.20134735107422 669.5004272460938 L 83.39962005615234 669.5004272460938 L 82.95416259765625 670.1669921875 L 69.49980163574219 690.3002319335938 Z" stroke="none"/>
      <path d="M 69.49980163574219 687.6007080078125 L 82.59789276123047 668.0004272460938 L 134.402587890625 668.0004272460938 L 113.8388900756836 621.2509765625 L 133.3866729736328 591.9996337890625 L 100.9719848632812 591.9996337890625 L 70.99980163574219 523.8609008789062 L 70.99980163574219 3 L 67.99980163574219 3 L 67.99980163574219 523.8609008789062 L 38.02761840820312 591.9996337890625 L 5.612932682037354 591.9996337890625 L 25.16071128845215 621.2509765625 L 4.597009658813477 668.0004272460938 L 56.40171051025391 668.0004272460938 L 69.49980163574219 687.6007080078125 M 69.49980163574219 693 L 54.79825592041016 671.0004272460938 L -1.654607513046358e-05 671.0004272460938 L 21.75198364257812 621.549560546875 L -1.654607513046358e-05 588.9996337890625 L 36.06980133056641 588.9996337890625 L 64.99980163574219 523.2302856445312 L 64.99980163574219 0 L 73.99980163574219 0 L 73.99980163574219 523.2302856445312 L 102.929801940918 588.9996337890625 L 138.9996185302734 588.9996337890625 L 117.2476196289062 621.549560546875 L 138.9996185302734 671.0004272460938 L 84.20134735107422 671.0004272460938 L 69.49980163574219 693 Z" stroke="none" fill="#0f4"/>
    </g>
  </g>
</svg>
